<svg width="191" height="191" viewBox="0 0 191 191" fill="none" xmlns="http://www.w3.org/2000/svg">
<rect width="190.993" height="190.993" rx="29.5584" fill="#E4A8AF"/>
<path d="M121.161 63.1059C125.03 57.4172 133.137 56.3502 138.132 61.0813C144.218 66.846 149.717 73.0437 152.764 80.7582C157.385 92.4599 157.859 105.26 154.114 117.238C150.368 129.215 142.606 139.723 131.992 147.183C121.379 154.644 108.486 158.655 95.251 158.615C82.0155 158.574 69.1512 154.484 58.5893 146.958C48.0274 139.432 40.338 128.876 36.6755 116.876C33.013 104.876 33.575 92.0793 38.2772 80.4062C41.3529 72.7708 46.9085 66.5406 52.9798 60.8476C58.0346 56.1078 66.185 57.2569 70.0438 63.0125C73.187 67.7007 72.3233 73.8512 68.2621 77.7712C64.9808 80.9384 62.2963 84.1281 60.5747 88.4019C57.7063 95.5224 57.3635 103.329 59.5977 110.649C61.8318 117.969 66.5223 124.407 72.9651 128.998C79.4078 133.589 87.2551 136.084 95.3287 136.109C103.402 136.134 111.267 133.687 117.741 129.136C124.215 124.585 128.95 118.175 131.235 110.869C133.52 103.563 133.231 95.7546 130.412 88.6166C128.73 84.3582 126.128 81.1232 122.904 77.9461C118.869 73.9699 117.975 67.7902 121.161 63.1059Z" fill="white"/>
<path d="M82.7637 46.7933C82.7637 39.7862 88.444 34.1059 95.4511 34.1059C102.458 34.1059 108.138 39.7862 108.138 46.7933V95.9967C108.138 103.004 102.458 108.684 95.4511 108.684C88.444 108.684 82.7637 103.004 82.7637 95.9967V46.7933Z" fill="white"/>
</svg>
